<svg width="24" height="24" viewBox="0 0 24 24" fill="none" xmlns="http://www.w3.org/2000/svg">
<path fill-rule="evenodd" clip-rule="evenodd" d="M21 5.88019C20.3386 6.1991 19.6265 6.41476 18.8796 6.51112C19.6424 6.01555 20.2277 5.22975 20.5034 4.29367C19.7892 4.75254 19 5.08635 18.1569 5.26531C17.4849 4.48639 16.5246 4 15.4617 4C13.4237 4 11.7702 5.7953 11.7702 8.0093C11.7702 8.32362 11.8019 8.62877 11.8653 8.92244C8.79609 8.75496 6.07554 7.16041 4.25304 4.73188C3.93502 5.32611 3.7533 6.01555 3.7533 6.74973C3.7533 8.14008 4.40518 9.36754 5.3962 10.0868C4.79187 10.0673 4.22134 9.8849 3.72266 9.58664V9.63597C3.72266 11.5792 4.99577 13.2002 6.68621 13.5673C6.37665 13.6613 6.05018 13.7084 5.71315 13.7084C5.47544 13.7084 5.243 13.6843 5.01796 13.6372C5.48811 15.2295 6.85102 16.3893 8.46751 16.4202C7.2039 17.4963 5.61067 18.1375 3.88114 18.1375C3.5832 18.1375 3.28843 18.1192 3 18.0825C4.63444 19.2181 6.57633 19.8824 8.66085 19.8824C15.4543 19.8824 19.168 13.7738 19.168 8.47505C19.168 8.30068 19.1648 8.12631 19.1585 7.95539C19.8801 7.38984 20.5066 6.68434 21 5.88019Z" fill="#999999"/>
</svg>
