<svg width="32" height="32" viewBox="0 0 32 32" fill="none" xmlns="http://www.w3.org/2000/svg">
<rect width="32" height="32" rx="16" fill="#FFEEED"/>
<rect width="24" height="24" transform="translate(4 4)" fill="#FFF1F0"/>
<path d="M17.5 4.66998C17.5 4.66998 18.24 7.31998 18.24 9.46998C18.24 11.53 16.89 13.2 14.83 13.2C12.76 13.2 11.2 11.53 11.2 9.46998L11.23 9.10998C9.21 11.51 8 14.62 8 18C8 22.42 11.58 26 16 26C20.42 26 24 22.42 24 18C24 12.61 21.41 7.79998 17.5 4.66998ZM15.71 23C13.93 23 12.49 21.6 12.49 19.86C12.49 18.24 13.54 17.1 15.3 16.74C17.07 16.38 18.9 15.53 19.92 14.16C20.31 15.45 20.51 16.81 20.51 18.2C20.51 20.85 18.36 23 15.71 23Z" fill="#D72E22"/>
</svg>
