<svg width="24" height="24" viewBox="0 0 24 24" fill="none" xmlns="http://www.w3.org/2000/svg">
<path fill-rule="evenodd" clip-rule="evenodd" d="M8.14846 13.2194C8.17647 12.8469 8.40056 12.503 8.7647 12.3311C9.29692 12.0732 9.92717 12.3167 10.1793 12.8612C10.4314 13.4057 10.1933 14.0504 9.66106 14.294C9.36694 14.4373 9.03081 14.423 8.7507 14.294L8.69468 14.2654H8.68067L8.65266 14.251C7.46218 13.549 6.48179 12.2594 5.89356 10.755C5.22129 11.1418 4.61905 11.6147 4.12885 12.2164C3.97479 12.4027 3.80672 12.6033 3.65266 12.7609C3.48459 12.9042 3.42857 12.9328 3.37255 12.9615C4.60504 15.2683 8.17647 16.6582 10.7535 16.171C10.6555 15.9848 10.5714 15.7985 10.5014 15.6122C10.4454 15.4689 10.4314 15.3113 10.4454 15.1537C10.5014 14.5519 11.0196 14.1221 11.5938 14.1651C12.1821 14.2224 12.6022 14.7382 12.5602 15.34C12.5322 15.6839 12.3501 15.9704 12.098 16.1424C11.916 16.257 11.7199 16.3573 11.5098 16.4576C11.972 16.9734 12.4902 17.4606 13.0504 17.8904C13.8347 17.0737 14.437 16.1137 14.7451 15.1537C14.409 15.3113 14.0028 15.297 13.6807 15.0534C13.2045 14.7095 13.0924 14.0361 13.4286 13.549C13.7647 13.0618 14.423 12.9472 14.9132 13.2911C15.2213 13.5203 15.3894 13.8785 15.3613 14.251C15.3473 15.6409 14.7451 17.131 13.7787 18.3919C14.437 18.7931 15.1513 19.094 15.8936 19.2229C16.1317 19.2659 16.3838 19.3089 16.5938 19.3805C16.8039 19.4522 16.8459 19.4952 16.902 19.5238C18.2325 17.2743 17.6303 13.42 15.9356 11.3711C15.8375 11.5144 15.7395 11.6576 15.6415 11.8009C15.6275 11.8296 15.6134 11.8439 15.5854 11.8726C15.4874 11.9872 15.3753 12.0875 15.2213 12.1448C14.6891 12.4027 14.0588 12.1591 13.8067 11.6147C13.5546 11.0702 13.7927 10.4254 14.3249 10.1818C14.619 10.0386 14.9552 10.0529 15.2353 10.1818L15.2913 10.2105L15.3193 10.2248C15.4734 10.3251 15.6415 10.4254 15.7815 10.54C15.9776 9.88095 16.1317 9.16454 16.2157 8.46246C15.1233 8.17589 14.0168 8.11858 13.0504 8.33351C13.3585 8.54843 13.5406 8.92096 13.5126 9.32215C13.4566 9.92393 12.9384 10.3538 12.3641 10.3108C11.7759 10.2535 11.3557 9.73767 11.3978 9.13588C11.4258 8.79201 11.6078 8.50544 11.8599 8.33351C13.0644 7.58844 14.6751 7.34486 16.2857 7.58844C16.2997 6.80039 16.1877 6.02667 15.9356 5.29593C15.8515 5.06668 15.7675 4.8231 15.7115 4.59385C15.6695 4.37893 15.6695 4.30729 15.6835 4.24997C13.1204 4.19266 10.1513 6.65711 9.26891 9.1932C9.46499 9.20752 9.67507 9.22185 9.87115 9.25051C10.0112 9.27916 10.1653 9.33648 10.2913 9.43677C10.7675 9.78065 10.8796 10.4541 10.5434 10.9412C10.2073 11.4284 9.54902 11.543 9.05882 11.1991C8.79272 10.9985 8.63865 10.6977 8.61064 10.3968C8.61064 10.3538 8.61064 10.2965 8.61064 10.2535C8.61064 10.0815 8.62465 9.9096 8.63866 9.72334C7.98039 9.88095 7.29412 10.0959 6.66386 10.3824C6.98599 11.457 7.4902 12.4743 8.14846 13.2194ZM5.66947 10.0672C5.06722 8.0756 5.12325 5.8404 6.18767 4.09236C6.34174 3.8058 6.45378 3.71983 6.5098 3.64819C6.59384 3.7055 6.69188 3.77714 6.91597 3.83446C8.10644 4.14968 9.46498 4.7228 10.6555 5.52518C12.028 3.99207 13.9608 2.93178 15.9776 3.00342C16.2857 2.98909 16.4258 3.04641 16.5098 3.07506C16.5098 3.17536 16.4958 3.30431 16.5518 3.51924C16.874 4.73713 17.07 6.22726 16.986 7.68874C18.9748 8.14724 20.8375 9.32215 21.7899 11.1418C21.958 11.4141 21.972 11.5717 22 11.6433C21.916 11.6863 21.8039 11.7436 21.6359 11.9156C20.7675 12.8039 19.605 13.7352 18.3305 14.3943C18.9328 16.3859 18.8768 18.6211 17.8123 20.3692C17.6583 20.6557 17.5462 20.7417 17.4902 20.8134C17.4062 20.756 17.3081 20.6844 17.084 20.6271C15.8936 20.3119 14.535 19.7387 13.3445 18.9364C11.972 20.4695 10.0392 21.5298 8.02241 21.4581C7.71429 21.4724 7.57423 21.4151 7.49019 21.3865C7.49019 21.2862 7.5042 21.1572 7.44818 20.9423C7.12605 19.7244 6.92997 18.2343 7.014 16.7728C5.02521 16.3143 3.16247 15.1394 2.21008 13.3197C2.04202 13.0475 2.02801 12.8899 2 12.8182C2.08403 12.7752 2.19608 12.7179 2.36415 12.546C3.23249 11.6433 4.38095 10.7263 5.66947 10.0672ZM7.70028 16.9018C8.86274 17.0737 10.0252 16.9877 11.0336 16.6582C11.4398 17.3029 11.972 17.8761 12.5742 18.3776C11.3137 19.5095 9.7451 20.2832 8.28852 20.2402C8.28852 20.1829 8.30252 20.1113 8.2605 19.8963C8.21848 19.6814 8.12045 19.4235 8.03642 19.1943C7.79832 18.4635 7.70028 17.6755 7.70028 16.9018ZM8.7507 9.16454C8.0084 9.20752 7.2521 9.39379 6.52381 9.68035C6.18767 8.00396 6.32773 6.22726 7.08403 4.95205C7.14005 4.98071 7.18207 5.0237 7.39216 5.09534C7.60224 5.16698 7.85434 5.20996 8.09244 5.25295C8.83473 5.3819 9.54902 5.68279 10.2073 6.08398C9.47899 7.02964 8.96078 8.08993 8.7507 9.16454ZM18.1064 13.7066C17.6723 12.589 17.014 11.6003 16.2297 10.8696C16.5658 10.1818 16.7899 9.42245 16.902 8.64872C18.4846 9.1932 19.9272 10.2105 20.6275 11.5C20.5714 11.5287 20.5154 11.543 20.3473 11.7006C20.1793 11.8582 20.0252 12.0588 19.8712 12.2451C19.395 12.8326 18.7787 13.3197 18.1064 13.7066Z" fill="white"/>
</svg>
