<svg width="20" height="20" viewBox="0 0 20 20" fill="none" xmlns="http://www.w3.org/2000/svg">
<path d="M17.316 6.24593C17.324 6.40793 17.327 6.57193 17.327 6.73393C17.327 11.7239 13.53 17.4759 6.58699 17.4759C4.45399 17.4759 2.47099 16.8509 0.799988 15.7789C1.78836 15.8985 2.7906 15.822 3.74943 15.554C4.70825 15.286 5.60485 14.8316 6.38799 14.2169C5.60041 14.202 4.83716 13.9414 4.20497 13.4715C3.57277 13.0015 3.10323 12.3458 2.86199 11.5959C3.42805 11.7018 4.01063 11.6796 4.56699 11.5309C3.7126 11.3577 2.94439 10.8944 2.39253 10.2195C1.84068 9.54462 1.53913 8.69971 1.53899 7.82793V7.78093C2.06318 8.07253 2.64945 8.2347 3.24899 8.25393C2.44886 7.72051 1.88246 6.90185 1.6654 5.96503C1.44834 5.02822 1.59698 4.04388 2.08099 3.21293C3.02878 4.37939 4.21134 5.33343 5.55186 6.01308C6.89239 6.69274 8.36089 7.0828 9.86199 7.15793C9.79705 6.87555 9.7645 6.58668 9.76499 6.29693C9.76499 5.80137 9.86261 5.31066 10.0523 4.85284C10.242 4.39501 10.52 3.97903 10.8704 3.62866C11.2209 3.27829 11.6369 3.0004 12.0948 2.81085C12.5527 2.62129 13.0434 2.5238 13.539 2.52393C14.0554 2.52309 14.5666 2.62837 15.0407 2.83325C15.5147 3.03812 15.9417 3.33822 16.295 3.71493C17.1401 3.54763 17.9507 3.23788 18.692 2.79893C18.41 3.67314 17.8201 4.41515 17.032 4.88693C17.7802 4.79822 18.511 4.59801 19.2 4.29293C18.6938 5.05137 18.0557 5.71285 17.316 6.24593Z" fill="white"/>
</svg>
