<svg width="18" height="18" viewBox="0 0 18 18" fill="none" xmlns="http://www.w3.org/2000/svg">
<path d="M6.75 16H13.5C14.1225 16 14.655 15.625 14.88 15.085L17.145 9.7975C17.2125 9.625 17.25 9.445 17.25 9.25V7.75C17.25 6.925 16.575 6.25 15.75 6.25H11.0175L11.73 2.8225L11.7525 2.5825C11.7525 2.275 11.625 1.99 11.4225 1.7875L10.6275 1L5.685 5.9425C5.415 6.2125 5.25 6.5875 5.25 7V14.5C5.25 15.325 5.925 16 6.75 16ZM6.75 7L10.005 3.745L9 7.75H15.75V9.25L13.5 14.5H6.75V7ZM0.75 7H3.75V16H0.75V7Z" fill="#999999"/>
</svg>
